<svg xmlns="http://www.w3.org/2000/svg" xmlns:xlink="http://www.w3.org/1999/xlink" version="1.1" style="" xml:space="preserve" width="538.260986328125" height="538.260986328125"><rect id="backgroundrect" width="100%" height="100%" x="0" y="0" fill="none" stroke="none"/>
















<g class="currentLayer" style=""><title>Layer 1</title><g id="svg_4">
</g><g id="svg_5">
</g><g id="svg_6">
</g><g id="svg_7">
</g><g id="svg_8">
</g><g id="svg_9">
</g><g id="svg_10">
</g><g id="svg_11">
</g><g id="svg_12">
</g><g id="svg_13">
</g><g id="svg_14">
</g><g id="svg_15">
</g><g id="svg_16">
</g><g id="svg_17">
</g><rect fill="#ffffff" stroke="#919191" stroke-dashoffset="" fill-rule="nonzero" id="svg_19" x="109" y="177" width="303" height="215" style="color: rgb(55, 215, 178);" class="" rx="0" ry="0"/><g id="svg_18">
</g><g id="svg_1" class="" fill="#37d7b2" fill-opacity="1" opacity="1" stroke="#919191" stroke-opacity="1" stroke-width="1">
	<g id="svg_2" fill="#37d7b2" fill-opacity="1" opacity="1" stroke="#919191" stroke-opacity="1" stroke-width="1">
		<path d="M269.13,0C120.87,0,0.33,120.688,0.33,269.13s120.54,269.13,268.8,269.13s268.8-120.688,268.8-269.13S417.39,0,269.13,0     M145.65,262.402l12.18-12.195c1.68-1.682,3.78-2.523,5.88-2.523s4.2,0.841,5.88,2.523l73.92,74.011c1.68,1.682,4.2,1.682,5.88,0    L369.51,203.95c2.94-2.944,8.4-2.944,11.76,0l12.18,12.195c1.68,1.682,2.52,3.785,2.52,5.887c0,2.103-0.84,4.205-2.52,5.887    L251.91,368.793c-2.94,2.944-8.4,2.944-11.76,0l-94.5-94.616c-1.68-1.682-2.52-3.785-2.52-5.887    C143.13,266.187,143.97,264.084,145.65,262.402" id="svg_3" fill="#37d7b2" fill-opacity="1" opacity="1" stroke="#919191" stroke-opacity="1" stroke-width="1"/>
	</g>
</g></g></svg>